# Wavefront OBJ file automatically generated by Tiled2Unity

# Vertices (Count = 263)
v -5 -9 -0.4
v -6 -9 -0.4
v -6 -8 -0.4
v -5 -8 -0.4
v -7 -9 -0.4
v -7 -8 -0.4
v -8 -9 -0.4
v -8 -8 -0.4
v -9 -9 -0.4
v -9 -8 -0.4
v -10 -9 -0.4
v -10 -8 -0.4
v -11 -9 -0.4
v -11 -8 -0.4
v -12 -9 -0.4
v -12 -8 -0.4
v -13 -9 -0.4
v -13 -8 -0.4
v -14 -9 -0.4
v -14 -8 -0.4
v -15 -9 -0.4
v -15 -8 -0.4
v -16 -9 -0.4
v -16 -8 -0.4
v -5 -10 -0.45
v -6 -10 -0.45
v -6 -9 -0.45
v -5 -9 -0.45
v -7 -10 -0.45
v -7 -9 -0.45
v -8 -10 -0.45
v -8 -9 -0.45
v -9 -10 -0.45
v -9 -9 -0.45
v -10 -10 -0.45
v -10 -9 -0.45
v -11 -10 -0.45
v -11 -9 -0.45
v -12 -10 -0.45
v -12 -9 -0.45
v -13 -10 -0.45
v -13 -9 -0.45
v -14 -10 -0.45
v -14 -9 -0.45
v -15 -10 -0.45
v -15 -9 -0.45
v -16 -10 -0.45
v -16 -9 -0.45
v -5 -11 -0.5
v -6 -11 -0.5
v -6 -10 -0.5
v -5 -10 -0.5
v -7 -11 -0.5
v -7 -10 -0.5
v -8 -11 -0.5
v -8 -10 -0.5
v -9 -11 -0.5
v -9 -10 -0.5
v -10 -11 -0.5
v -10 -10 -0.5
v -11 -11 -0.5
v -11 -10 -0.5
v -12 -11 -0.5
v -12 -10 -0.5
v -13 -11 -0.5
v -13 -10 -0.5
v -14 -11 -0.5
v -14 -10 -0.5
v -15 -11 -0.5
v -15 -10 -0.5
v -16 -11 -0.5
v -16 -10 -0.5
v -3 -6 -0.25
v -4 -6 -0.25
v -4 -5 -0.25
v -3 -5 -0.25
v -5 -6 -0.25
v -5 -5 -0.25
v -6 -6 -0.25
v -6 -5 -0.25
v -7 -6 -0.25
v -7 -5 -0.25
v -8 -6 -0.25
v -8 -5 -0.25
v -9 -6 -0.25
v -9 -5 -0.25
v -10 -6 -0.25
v -10 -5 -0.25
v -11 -6 -0.25
v -11 -5 -0.25
v -12 -6 -0.25
v -12 -5 -0.25
v -13 -6 -0.25
v -13 -5 -0.25
v -14 -6 -0.25
v -14 -5 -0.25
v -15 -6 -0.25
v -15 -5 -0.25
v -16 -6 -0.25
v -16 -5 -0.25
v -17 -6 -0.25
v -17 -5 -0.25
v -18 -6 -0.25
v -18 -5 -0.25
v -3 -7 -0.3
v -4 -7 -0.3
v -4 -6 -0.3
v -3 -6 -0.3
v -5 -7 -0.3
v -5 -6 -0.3
v -6 -7 -0.3
v -6 -6 -0.3
v -7 -7 -0.3
v -7 -6 -0.3
v -8 -7 -0.3
v -8 -6 -0.3
v -9 -7 -0.3
v -9 -6 -0.3
v -10 -7 -0.3
v -10 -6 -0.3
v -11 -7 -0.3
v -11 -6 -0.3
v -12 -7 -0.3
v -12 -6 -0.3
v -13 -7 -0.3
v -13 -6 -0.3
v -14 -7 -0.3
v -14 -6 -0.3
v -15 -7 -0.3
v -15 -6 -0.3
v -16 -7 -0.3
v -16 -6 -0.3
v -17 -7 -0.3
v -17 -6 -0.3
v -18 -7 -0.3
v -18 -6 -0.3
v -3 -8 -0.35
v -4 -8 -0.35
v -4 -7 -0.35
v -3 -7 -0.35
v -5 -8 -0.35
v -5 -7 -0.35
v -6 -8 -0.35
v -6 -7 -0.35
v -7 -8 -0.35
v -7 -7 -0.35
v -8 -8 -0.35
v -8 -7 -0.35
v -9 -8 -0.35
v -9 -7 -0.35
v -10 -8 -0.35
v -10 -7 -0.35
v -11 -8 -0.35
v -11 -7 -0.35
v -12 -8 -0.35
v -12 -7 -0.35
v -13 -8 -0.35
v -13 -7 -0.35
v -14 -8 -0.35
v -14 -7 -0.35
v -15 -8 -0.35
v -15 -7 -0.35
v -16 -8 -0.35
v -16 -7 -0.35
v -17 -8 -0.35
v -17 -7 -0.35
v -18 -8 -0.35
v -18 -7 -0.35
v -3 -9 -0.4
v -4 -9 -0.4
v -4 -8 -0.4
v -3 -8 -0.4
v -17 -9 -0.4
v -17 -8 -0.4
v -18 -9 -0.4
v -18 -8 -0.4
v -3 -10 -0.45
v -4 -10 -0.45
v -4 -9 -0.45
v -3 -9 -0.45
v -17 -10 -0.45
v -17 -9 -0.45
v -18 -10 -0.45
v -18 -9 -0.45
v -3 -11 -0.5
v -4 -11 -0.5
v -4 -10 -0.5
v -3 -10 -0.5
v -17 -11 -0.5
v -17 -10 -0.5
v -18 -11 -0.5
v -18 -10 -0.5
v -3 -12 -0.55
v -4 -12 -0.55
v -4 -11 -0.55
v -3 -11 -0.55
v -5 -12 -0.55
v -5 -11 -0.55
v -6 -12 -0.55
v -6 -11 -0.55
v -7 -12 -0.55
v -7 -11 -0.55
v -8 -12 -0.55
v -8 -11 -0.55
v -9 -12 -0.55
v -9 -11 -0.55
v -10 -12 -0.55
v -10 -11 -0.55
v -11 -12 -0.55
v -11 -11 -0.55
v -12 -12 -0.55
v -12 -11 -0.55
v -13 -12 -0.55
v -13 -11 -0.55
v -14 -12 -0.55
v -14 -11 -0.55
v -15 -12 -0.55
v -15 -11 -0.55
v -16 -12 -0.55
v -16 -11 -0.55
v -17 -12 -0.55
v -17 -11 -0.55
v -18 -12 -0.55
v -18 -11 -0.55
v -3 -13 -0.6
v -4 -13 -0.6
v -4 -12 -0.6
v -3 -12 -0.6
v -5 -13 -0.6
v -5 -12 -0.6
v -6 -13 -0.6
v -6 -12 -0.6
v -7 -13 -0.6
v -7 -12 -0.6
v -8 -13 -0.6
v -8 -12 -0.6
v -9 -13 -0.6
v -9 -12 -0.6
v -10 -13 -0.6
v -10 -12 -0.6
v -11 -13 -0.6
v -11 -12 -0.6
v -12 -13 -0.6
v -12 -12 -0.6
v -13 -13 -0.6
v -13 -12 -0.6
v -14 -13 -0.6
v -14 -12 -0.6
v -15 -13 -0.6
v -15 -12 -0.6
v -16 -13 -0.6
v -16 -12 -0.6
v -17 -13 -0.6
v -17 -12 -0.6
v -18 -13 -0.6
v -18 -12 -0.6
v 0 -2 0
v -2 -2 0
v -2 0 0
v 0 0 0
v 0 -1 0
v -1 -1 0
v -1 0 0

# Texture cooridinates (Count = 492)
vt 0.1302163 0.6744871
vt 0.1953046 0.6744871
vt 0.1953046 0.7395754
vt 0.1302163 0.7395754
vt 0.1953204 0.6744871
vt 0.2604087 0.6744871
vt 0.2604087 0.7395754
vt 0.1953204 0.7395754
vt 0.2604246 0.6744871
vt 0.3255129 0.6744871
vt 0.3255129 0.7395754
vt 0.2604246 0.7395754
vt 0.3255288 0.6744871
vt 0.390617 0.6744871
vt 0.390617 0.7395754
vt 0.3255288 0.7395754
vt 0.390633 0.6744871
vt 0.4557212 0.6744871
vt 0.4557212 0.7395754
vt 0.390633 0.7395754
vt 0.4557371 0.6744871
vt 0.5208254 0.6744871
vt 0.5208254 0.7395754
vt 0.4557371 0.7395754
vt 0.5208413 0.6744871
vt 0.5859296 0.6744871
vt 0.5859296 0.7395754
vt 0.5208413 0.7395754
vt 0.5859454 0.6744871
vt 0.6510337 0.6744871
vt 0.6510337 0.7395754
vt 0.5859454 0.7395754
vt 0.6510496 0.6744871
vt 0.7161379 0.6744871
vt 0.7161379 0.7395754
vt 0.6510496 0.7395754
vt 0.7161538 0.6744871
vt 0.7812421 0.6744871
vt 0.7812421 0.7395754
vt 0.7161538 0.7395754
vt 0.7812579 0.7395912
vt 0.8463462 0.7395912
vt 0.8463462 0.8046796
vt 0.7812579 0.8046796
vt 0.1302163 0.609383
vt 0.1953046 0.609383
vt 0.1953046 0.6744713
vt 0.1302163 0.6744713
vt 0.1953204 0.609383
vt 0.2604087 0.609383
vt 0.2604087 0.6744713
vt 0.1953204 0.6744713
vt 0.2604246 0.609383
vt 0.3255129 0.609383
vt 0.3255129 0.6744713
vt 0.2604246 0.6744713
vt 0.3255288 0.609383
vt 0.390617 0.609383
vt 0.390617 0.6744713
vt 0.3255288 0.6744713
vt 0.390633 0.609383
vt 0.4557212 0.609383
vt 0.4557212 0.6744713
vt 0.390633 0.6744713
vt 0.4557371 0.609383
vt 0.5208254 0.609383
vt 0.5208254 0.6744713
vt 0.4557371 0.6744713
vt 0.5208413 0.609383
vt 0.5859296 0.609383
vt 0.5859296 0.6744713
vt 0.5208413 0.6744713
vt 0.5859454 0.609383
vt 0.6510337 0.609383
vt 0.6510337 0.6744713
vt 0.5859454 0.6744713
vt 0.6510496 0.609383
vt 0.7161379 0.609383
vt 0.7161379 0.6744713
vt 0.6510496 0.6744713
vt 0.7161538 0.609383
vt 0.7812421 0.609383
vt 0.7812421 0.6744713
vt 0.7161538 0.6744713
vt 0.7812579 0.6744871
vt 0.8463462 0.6744871
vt 0.8463462 0.7395754
vt 0.7812579 0.7395754
vt 0.1302163 0.5442787
vt 0.1953046 0.5442787
vt 0.1953046 0.609367
vt 0.1302163 0.609367
vt 0.1953204 0.5442787
vt 0.2604087 0.5442787
vt 0.2604087 0.609367
vt 0.1953204 0.609367
vt 0.2604246 0.5442787
vt 0.3255129 0.5442787
vt 0.3255129 0.609367
vt 0.2604246 0.609367
vt 0.3255288 0.5442787
vt 0.390617 0.5442787
vt 0.390617 0.609367
vt 0.3255288 0.609367
vt 0.390633 0.5442787
vt 0.4557212 0.5442787
vt 0.4557212 0.609367
vt 0.390633 0.609367
vt 0.4557371 0.5442787
vt 0.5208254 0.5442787
vt 0.5208254 0.609367
vt 0.4557371 0.609367
vt 0.5208413 0.5442787
vt 0.5859296 0.5442787
vt 0.5859296 0.609367
vt 0.5208413 0.609367
vt 0.5859454 0.5442787
vt 0.6510337 0.5442787
vt 0.6510337 0.609367
vt 0.5859454 0.609367
vt 0.6510496 0.5442787
vt 0.7161379 0.5442787
vt 0.7161379 0.609367
vt 0.6510496 0.609367
vt 0.7161538 0.5442787
vt 0.7812421 0.5442787
vt 0.7812421 0.609367
vt 0.7161538 0.609367
vt 0.7812579 0.5442787
vt 0.8463462 0.5442787
vt 0.8463462 0.609367
vt 0.7812579 0.609367
vt 7.947286E-06 0.9349038
vt 0.06509622 0.9349038
vt 0.06509622 0.9999921
vt 7.947286E-06 0.9999921
vt 0.06511211 0.9349038
vt 0.1302004 0.9349038
vt 0.1302004 0.9999921
vt 0.06511211 0.9999921
vt 0.1302163 0.9349038
vt 0.1953046 0.9349038
vt 0.1953046 0.9999921
vt 0.1302163 0.9999921
vt 0.1953204 0.9349038
vt 0.2604087 0.9349038
vt 0.2604087 0.9999921
vt 0.1953204 0.9999921
vt 0.2604246 0.9349038
vt 0.3255129 0.9349038
vt 0.3255129 0.9999921
vt 0.2604246 0.9999921
vt 0.3255288 0.9349038
vt 0.390617 0.9349038
vt 0.390617 0.9999921
vt 0.3255288 0.9999921
vt 0.390633 0.9349038
vt 0.4557212 0.9349038
vt 0.4557212 0.9999921
vt 0.390633 0.9999921
vt 0.4557371 0.9349038
vt 0.5208254 0.9349038
vt 0.5208254 0.9999921
vt 0.4557371 0.9999921
vt 0.5208413 0.9349038
vt 0.5859296 0.9349038
vt 0.5859296 0.9999921
vt 0.5208413 0.9999921
vt 0.5859454 0.9349038
vt 0.6510337 0.9349038
vt 0.6510337 0.9999921
vt 0.5859454 0.9999921
vt 0.6510496 0.9349038
vt 0.7161379 0.9349038
vt 0.7161379 0.9999921
vt 0.6510496 0.9999921
vt 0.7161538 0.9349038
vt 0.7812421 0.9349038
vt 0.7812421 0.9999921
vt 0.7161538 0.9999921
vt 0.7812579 0.9349038
vt 0.8463462 0.9349038
vt 0.8463462 0.9999921
vt 0.7812579 0.9999921
vt 0.8463621 0.9349038
vt 0.9114504 0.9349038
vt 0.9114504 0.9999921
vt 0.8463621 0.9999921
vt 0.9114663 0.9349038
vt 0.9765546 0.9349038
vt 0.9765546 0.9999921
vt 0.9114663 0.9999921
vt 7.947286E-06 0.8697996
vt 0.06509622 0.8697996
vt 0.06509622 0.9348879
vt 7.947286E-06 0.9348879
vt 0.06511211 0.8697996
vt 0.1302004 0.8697996
vt 0.1302004 0.9348879
vt 0.06511211 0.9348879
vt 0.1302163 0.8697996
vt 0.1953046 0.8697996
vt 0.1953046 0.9348879
vt 0.1302163 0.9348879
vt 0.1953204 0.8697996
vt 0.2604087 0.8697996
vt 0.2604087 0.9348879
vt 0.1953204 0.9348879
vt 0.2604246 0.8697996
vt 0.3255129 0.8697996
vt 0.3255129 0.9348879
vt 0.2604246 0.9348879
vt 0.3255288 0.8697996
vt 0.390617 0.8697996
vt 0.390617 0.9348879
vt 0.3255288 0.9348879
vt 0.390633 0.8697996
vt 0.4557212 0.8697996
vt 0.4557212 0.9348879
vt 0.390633 0.9348879
vt 0.4557371 0.8697996
vt 0.5208254 0.8697996
vt 0.5208254 0.9348879
vt 0.4557371 0.9348879
vt 0.5208413 0.8697996
vt 0.5859296 0.8697996
vt 0.5859296 0.9348879
vt 0.5208413 0.9348879
vt 0.5859454 0.8697996
vt 0.6510337 0.8697996
vt 0.6510337 0.9348879
vt 0.5859454 0.9348879
vt 0.6510496 0.8697996
vt 0.7161379 0.8697996
vt 0.7161379 0.9348879
vt 0.6510496 0.9348879
vt 0.7161538 0.8697996
vt 0.7812421 0.8697996
vt 0.7812421 0.9348879
vt 0.7161538 0.9348879
vt 0.7812579 0.8697996
vt 0.8463462 0.8697996
vt 0.8463462 0.9348879
vt 0.7812579 0.9348879
vt 0.8463621 0.8697996
vt 0.9114504 0.8697996
vt 0.9114504 0.9348879
vt 0.8463621 0.9348879
vt 0.9114663 0.8697996
vt 0.9765546 0.8697996
vt 0.9765546 0.9348879
vt 0.9114663 0.9348879
vt 7.947286E-06 0.8046954
vt 0.06509622 0.8046954
vt 0.06509622 0.8697837
vt 7.947286E-06 0.8697837
vt 0.06511211 0.8046954
vt 0.1302004 0.8046954
vt 0.1302004 0.8697837
vt 0.06511211 0.8697837
vt 0.1302163 0.8046954
vt 0.1953046 0.8046954
vt 0.1953046 0.8697837
vt 0.1302163 0.8697837
vt 0.1953204 0.8046954
vt 0.2604087 0.8046954
vt 0.2604087 0.8697837
vt 0.1953204 0.8697837
vt 0.2604246 0.8046954
vt 0.3255129 0.8046954
vt 0.3255129 0.8697837
vt 0.2604246 0.8697837
vt 0.3255288 0.8046954
vt 0.390617 0.8046954
vt 0.390617 0.8697837
vt 0.3255288 0.8697837
vt 0.390633 0.8046954
vt 0.4557212 0.8046954
vt 0.4557212 0.8697837
vt 0.390633 0.8697837
vt 0.4557371 0.8046954
vt 0.5208254 0.8046954
vt 0.5208254 0.8697837
vt 0.4557371 0.8697837
vt 0.5208413 0.8046954
vt 0.5859296 0.8046954
vt 0.5859296 0.8697837
vt 0.5208413 0.8697837
vt 0.5859454 0.8046954
vt 0.6510337 0.8046954
vt 0.6510337 0.8697837
vt 0.5859454 0.8697837
vt 0.6510496 0.8046954
vt 0.7161379 0.8046954
vt 0.7161379 0.8697837
vt 0.6510496 0.8697837
vt 0.7161538 0.8046954
vt 0.7812421 0.8046954
vt 0.7812421 0.8697837
vt 0.7161538 0.8697837
vt 0.7812579 0.8046954
vt 0.8463462 0.8046954
vt 0.8463462 0.8697837
vt 0.7812579 0.8697837
vt 0.8463621 0.8046954
vt 0.9114504 0.8046954
vt 0.9114504 0.8697837
vt 0.8463621 0.8697837
vt 0.9114663 0.8046954
vt 0.9765546 0.8046954
vt 0.9765546 0.8697837
vt 0.9114663 0.8697837
vt 7.947286E-06 0.609383
vt 0.06509622 0.609383
vt 0.06509622 0.6744713
vt 7.947286E-06 0.6744713
vt 0.06511211 0.609383
vt 0.1302004 0.609383
vt 0.1302004 0.6744713
vt 0.06511211 0.6744713
vt 0.8463621 0.7395912
vt 0.9114504 0.7395912
vt 0.9114504 0.8046796
vt 0.8463621 0.8046796
vt 0.9114663 0.7395912
vt 0.9765546 0.7395912
vt 0.9765546 0.8046796
vt 0.9114663 0.8046796
vt 7.947286E-06 0.5442787
vt 0.06509622 0.5442787
vt 0.06509622 0.609367
vt 7.947286E-06 0.609367
vt 0.06511211 0.5442787
vt 0.1302004 0.5442787
vt 0.1302004 0.609367
vt 0.06511211 0.609367
vt 0.8463621 0.6744871
vt 0.9114504 0.6744871
vt 0.9114504 0.7395754
vt 0.8463621 0.7395754
vt 0.9114663 0.6744871
vt 0.9765546 0.6744871
vt 0.9765546 0.7395754
vt 0.9114663 0.7395754
vt 7.947286E-06 0.4791746
vt 0.06509622 0.4791746
vt 0.06509622 0.5442629
vt 7.947286E-06 0.5442629
vt 0.06511211 0.4791746
vt 0.1302004 0.4791746
vt 0.1302004 0.5442629
vt 0.06511211 0.5442629
vt 0.8463621 0.609383
vt 0.9114504 0.609383
vt 0.9114504 0.6744713
vt 0.8463621 0.6744713
vt 0.9114663 0.609383
vt 0.9765546 0.609383
vt 0.9765546 0.6744713
vt 0.9114663 0.6744713
vt 7.947286E-06 0.08854961
vt 0.06509622 0.08854961
vt 0.06509622 0.1536379
vt 7.947286E-06 0.1536379
vt 0.06511211 0.08854961
vt 0.1302004 0.08854961
vt 0.1302004 0.1536379
vt 0.06511211 0.1536379
vt 0.1302163 0.08854961
vt 0.1953046 0.08854961
vt 0.1953046 0.1536379
vt 0.1302163 0.1536379
vt 0.1953204 0.08854961
vt 0.2604087 0.08854961
vt 0.2604087 0.1536379
vt 0.1953204 0.1536379
vt 0.2604246 0.08854961
vt 0.3255129 0.08854961
vt 0.3255129 0.1536379
vt 0.2604246 0.1536379
vt 0.3255288 0.08854961
vt 0.390617 0.08854961
vt 0.390617 0.1536379
vt 0.3255288 0.1536379
vt 0.390633 0.08854961
vt 0.4557212 0.08854961
vt 0.4557212 0.1536379
vt 0.390633 0.1536379
vt 0.4557371 0.08854961
vt 0.5208254 0.08854961
vt 0.5208254 0.1536379
vt 0.4557371 0.1536379
vt 0.5208413 0.08854961
vt 0.5859296 0.08854961
vt 0.5859296 0.1536379
vt 0.5208413 0.1536379
vt 0.5859454 0.08854961
vt 0.6510337 0.08854961
vt 0.6510337 0.1536379
vt 0.5859454 0.1536379
vt 0.6510496 0.08854961
vt 0.7161379 0.08854961
vt 0.7161379 0.1536379
vt 0.6510496 0.1536379
vt 0.7161538 0.08854961
vt 0.7812421 0.08854961
vt 0.7812421 0.1536379
vt 0.7161538 0.1536379
vt 0.7812579 0.08854961
vt 0.8463462 0.08854961
vt 0.8463462 0.1536379
vt 0.7812579 0.1536379
vt 0.8463621 0.08854961
vt 0.9114504 0.08854961
vt 0.9114504 0.1536379
vt 0.8463621 0.1536379
vt 0.9114663 0.08854961
vt 0.9765546 0.08854961
vt 0.9765546 0.1536379
vt 0.9114663 0.1536379
vt 7.947286E-06 0.02344543
vt 0.06509622 0.02344543
vt 0.06509622 0.0885337
vt 7.947286E-06 0.0885337
vt 0.06511211 0.02344543
vt 0.1302004 0.02344543
vt 0.1302004 0.0885337
vt 0.06511211 0.0885337
vt 0.1302163 0.02344543
vt 0.1953046 0.02344543
vt 0.1953046 0.0885337
vt 0.1302163 0.0885337
vt 0.1953204 0.02344543
vt 0.2604087 0.02344543
vt 0.2604087 0.0885337
vt 0.1953204 0.0885337
vt 0.2604246 0.02344543
vt 0.3255129 0.02344543
vt 0.3255129 0.0885337
vt 0.2604246 0.0885337
vt 0.3255288 0.02344543
vt 0.390617 0.02344543
vt 0.390617 0.0885337
vt 0.3255288 0.0885337
vt 0.390633 0.02344543
vt 0.4557212 0.02344543
vt 0.4557212 0.0885337
vt 0.390633 0.0885337
vt 0.4557371 0.02344543
vt 0.5208254 0.02344543
vt 0.5208254 0.0885337
vt 0.4557371 0.0885337
vt 0.5208413 0.02344543
vt 0.5859296 0.02344543
vt 0.5859296 0.0885337
vt 0.5208413 0.0885337
vt 0.5859454 0.02344543
vt 0.6510337 0.02344543
vt 0.6510337 0.0885337
vt 0.5859454 0.0885337
vt 0.6510496 0.02344543
vt 0.7161379 0.02344543
vt 0.7161379 0.0885337
vt 0.6510496 0.0885337
vt 0.7161538 0.02344543
vt 0.7812421 0.02344543
vt 0.7812421 0.0885337
vt 0.7161538 0.0885337
vt 0.7812579 0.02344543
vt 0.8463462 0.02344543
vt 0.8463462 0.0885337
vt 0.7812579 0.0885337
vt 0.8463621 0.02344543
vt 0.9114504 0.02344543
vt 0.9114504 0.0885337
vt 0.8463621 0.0885337
vt 0.9114663 0.02344543
vt 0.9765546 0.02344543
vt 0.9765546 0.0885337
vt 0.9114663 0.0885337
vt 0.0001220703 0.0001220703
vt 0.9998779 0.0001220703
vt 0.9998779 0.9998779
vt 0.0001220703 0.9998779
vt 6.103516E-05 0.0001220703
vt 0.499939 0.0001220703
vt 0.499939 0.9998779
vt 6.103516E-05 0.9998779
vt 9.536743E-05 0.2188454
vt 0.7811546 0.2188454
vt 0.7811546 0.9999046
vt 9.536743E-05 0.9999046

# Normal
vn 0 0 -1

# Groups (Count = 11)

g mesh_0001
f 1/1/1 2/2/1 3/3/1 4/4/1
f 2/5/1 5/6/1 6/7/1 3/8/1
f 5/9/1 7/10/1 8/11/1 6/12/1
f 7/13/1 9/14/1 10/15/1 8/16/1
f 9/17/1 11/18/1 12/19/1 10/20/1
f 11/21/1 13/22/1 14/23/1 12/24/1
f 13/25/1 15/26/1 16/27/1 14/28/1
f 15/29/1 17/30/1 18/31/1 16/32/1
f 17/33/1 19/34/1 20/35/1 18/36/1
f 19/37/1 21/38/1 22/39/1 20/40/1
f 21/41/1 23/42/1 24/43/1 22/44/1
f 25/45/1 26/46/1 27/47/1 28/48/1
f 26/49/1 29/50/1 30/51/1 27/52/1
f 29/53/1 31/54/1 32/55/1 30/56/1
f 31/57/1 33/58/1 34/59/1 32/60/1
f 33/61/1 35/62/1 36/63/1 34/64/1
f 35/65/1 37/66/1 38/67/1 36/68/1
f 37/69/1 39/70/1 40/71/1 38/72/1
f 39/73/1 41/74/1 42/75/1 40/76/1
f 41/77/1 43/78/1 44/79/1 42/80/1
f 43/81/1 45/82/1 46/83/1 44/84/1
f 45/85/1 47/86/1 48/87/1 46/88/1
f 49/89/1 50/90/1 51/91/1 52/92/1
f 50/93/1 53/94/1 54/95/1 51/96/1
f 53/97/1 55/98/1 56/99/1 54/100/1
f 55/101/1 57/102/1 58/103/1 56/104/1
f 57/105/1 59/106/1 60/107/1 58/108/1
f 59/109/1 61/110/1 62/111/1 60/112/1
f 61/113/1 63/114/1 64/115/1 62/116/1
f 63/117/1 65/118/1 66/119/1 64/120/1
f 65/121/1 67/122/1 68/123/1 66/124/1
f 67/125/1 69/126/1 70/127/1 68/128/1
f 69/129/1 71/130/1 72/131/1 70/132/1

g mesh_0002
f 73/133/1 74/134/1 75/135/1 76/136/1
f 74/137/1 77/138/1 78/139/1 75/140/1
f 77/141/1 79/142/1 80/143/1 78/144/1
f 79/145/1 81/146/1 82/147/1 80/148/1
f 81/149/1 83/150/1 84/151/1 82/152/1
f 83/153/1 85/154/1 86/155/1 84/156/1
f 85/157/1 87/158/1 88/159/1 86/160/1
f 87/161/1 89/162/1 90/163/1 88/164/1
f 89/165/1 91/166/1 92/167/1 90/168/1
f 91/169/1 93/170/1 94/171/1 92/172/1
f 93/173/1 95/174/1 96/175/1 94/176/1
f 95/177/1 97/178/1 98/179/1 96/180/1
f 97/181/1 99/182/1 100/183/1 98/184/1
f 99/185/1 101/186/1 102/187/1 100/188/1
f 101/189/1 103/190/1 104/191/1 102/192/1
f 105/193/1 106/194/1 107/195/1 108/196/1
f 106/197/1 109/198/1 110/199/1 107/200/1
f 109/201/1 111/202/1 112/203/1 110/204/1
f 111/205/1 113/206/1 114/207/1 112/208/1
f 113/209/1 115/210/1 116/211/1 114/212/1
f 115/213/1 117/214/1 118/215/1 116/216/1
f 117/217/1 119/218/1 120/219/1 118/220/1
f 119/221/1 121/222/1 122/223/1 120/224/1
f 121/225/1 123/226/1 124/227/1 122/228/1
f 123/229/1 125/230/1 126/231/1 124/232/1
f 125/233/1 127/234/1 128/235/1 126/236/1
f 127/237/1 129/238/1 130/239/1 128/240/1
f 129/241/1 131/242/1 132/243/1 130/244/1
f 131/245/1 133/246/1 134/247/1 132/248/1
f 133/249/1 135/250/1 136/251/1 134/252/1
f 137/253/1 138/254/1 139/255/1 140/256/1
f 138/257/1 141/258/1 142/259/1 139/260/1
f 141/261/1 143/262/1 144/263/1 142/264/1
f 143/265/1 145/266/1 146/267/1 144/268/1
f 145/269/1 147/270/1 148/271/1 146/272/1
f 147/273/1 149/274/1 150/275/1 148/276/1
f 149/277/1 151/278/1 152/279/1 150/280/1
f 151/281/1 153/282/1 154/283/1 152/284/1
f 153/285/1 155/286/1 156/287/1 154/288/1
f 155/289/1 157/290/1 158/291/1 156/292/1
f 157/293/1 159/294/1 160/295/1 158/296/1
f 159/297/1 161/298/1 162/299/1 160/300/1
f 161/301/1 163/302/1 164/303/1 162/304/1
f 163/305/1 165/306/1 166/307/1 164/308/1
f 165/309/1 167/310/1 168/311/1 166/312/1
f 169/313/1 170/314/1 171/315/1 172/316/1
f 170/317/1 1/318/1 4/319/1 171/320/1
f 23/321/1 173/322/1 174/323/1 24/324/1
f 173/325/1 175/326/1 176/327/1 174/328/1
f 177/329/1 178/330/1 179/331/1 180/332/1
f 178/333/1 25/334/1 28/335/1 179/336/1
f 47/337/1 181/338/1 182/339/1 48/340/1
f 181/341/1 183/342/1 184/343/1 182/344/1
f 185/345/1 186/346/1 187/347/1 188/348/1
f 186/349/1 49/350/1 52/351/1 187/352/1
f 71/353/1 189/354/1 190/355/1 72/356/1
f 189/357/1 191/358/1 192/359/1 190/360/1
f 193/361/1 194/362/1 195/363/1 196/364/1
f 194/365/1 197/366/1 198/367/1 195/368/1
f 197/369/1 199/370/1 200/371/1 198/372/1
f 199/373/1 201/374/1 202/375/1 200/376/1
f 201/377/1 203/378/1 204/379/1 202/380/1
f 203/381/1 205/382/1 206/383/1 204/384/1
f 205/385/1 207/386/1 208/387/1 206/388/1
f 207/389/1 209/390/1 210/391/1 208/392/1
f 209/393/1 211/394/1 212/395/1 210/396/1
f 211/397/1 213/398/1 214/399/1 212/400/1
f 213/401/1 215/402/1 216/403/1 214/404/1
f 215/405/1 217/406/1 218/407/1 216/408/1
f 217/409/1 219/410/1 220/411/1 218/412/1
f 219/413/1 221/414/1 222/415/1 220/416/1
f 221/417/1 223/418/1 224/419/1 222/420/1
f 225/421/1 226/422/1 227/423/1 228/424/1
f 226/425/1 229/426/1 230/427/1 227/428/1
f 229/429/1 231/430/1 232/431/1 230/432/1
f 231/433/1 233/434/1 234/435/1 232/436/1
f 233/437/1 235/438/1 236/439/1 234/440/1
f 235/441/1 237/442/1 238/443/1 236/444/1
f 237/445/1 239/446/1 240/447/1 238/448/1
f 239/449/1 241/450/1 242/451/1 240/452/1
f 241/453/1 243/454/1 244/455/1 242/456/1
f 243/457/1 245/458/1 246/459/1 244/460/1
f 245/461/1 247/462/1 248/463/1 246/464/1
f 247/465/1 249/466/1 250/467/1 248/468/1
f 249/469/1 251/470/1 252/471/1 250/472/1
f 251/473/1 253/474/1 254/475/1 252/476/1
f 253/477/1 255/478/1 256/479/1 254/480/1

g mesh_0003
f 209/385/1 211/386/1 212/387/1 210/388/1
f 211/389/1 213/390/1 214/391/1 212/392/1
f 213/393/1 215/394/1 216/395/1 214/396/1
f 241/445/1 243/446/1 244/447/1 242/448/1
f 243/449/1 245/450/1 246/451/1 244/452/1
f 245/453/1 247/454/1 248/455/1 246/456/1

g mesh_tile_0697
f 257/481/1 258/482/1 259/483/1 260/484/1

g mesh_tile_0698
f 257/481/1 258/482/1 259/483/1 260/484/1

g mesh_tile_0699
f 257/481/1 258/482/1 259/483/1 260/484/1

g mesh_tile_0694
f 257/481/1 258/482/1 259/483/1 260/484/1

g mesh_tile_0692
f 261/485/1 262/486/1 263/487/1 260/488/1

g mesh_tile_0696
f 261/489/1 262/490/1 263/491/1 260/492/1

g mesh_tile_0695
f 261/481/1 262/482/1 263/483/1 260/484/1

